{"title":"National.Geographic.The.Last.Killer.Tigers.WEBRip.P2P4FREE","uid":8538411,"size":186132627,"categoryP":"video","categoryS":"tv_shows","magnet":"?xt=urn:btih:9c378f8888dd987e788ccb0bafe7c993455bbaf0&amp;dn=National.Geographic.The.Last.Killer.Tigers.WEBRip.P2P4FREE&amp;tr=udp%3A%2F%2Ftracker.openbittorrent.com%3A80&amp;tr=udp%3A%2F%2Fopen.demonii.com%3A1337&amp;tr=udp%3A%2F%2Ftracker.coppersurfer.tk%3A6969&amp;tr=udp%3A%2F%2Fexodus.desync.com%3A6969","seeders":1,"leechers":0,"uploader":"P2P4FREE","files":1,"time":1370323676,"description":"General\n-----------------------------------------------------------------\nFormat                                   : MPEG-4\nFormat profile                           : Base Media / Version 2\nCodec ID                                 : mp42\nFile size                                : 178 MiB\nDuration                                 : 45mn 1s\nOverall bit rate mode                    : Variable\nOverall bit rate                         : 551 Kbps\n\nVideo\n-----------------------------------------------------------------\nID                                       : 1\nFormat                                   : AVC\nFormat/Info                              : Advanced Video Codec\nFormat profile                           : &lt;a class=&quot;__cf_email__&quot; href=&quot;/cdn-cgi/l/email-protection&quot; data-cfemail=&quot;9fddfeecfaf3f6f1fadfd3adb1ae&quot;&gt;[email&amp;#160;protected]&lt;/a&gt;&lt;script cf-hash='f9e31' type=&quot;text/javascript&quot;&gt;\n/* &lt;![CDATA[ */!function(){try{var t=&quot;currentScript&quot;in document?document.currentScript:function(){for(var t=document.getElementsByTagName(&quot;script&quot;),e=t.length;e--;)if(t[e].getAttribute(&quot;cf-hash&quot;))return t[e]}();if(t&amp;&amp;t.previousSibling){var e,r,n,i,c=t.previousSibling,a=c.getAttribute(&quot;data-cfemail&quot;);if(a){for(e=&quot;&quot;,r=parseInt(a.substr(0,2),16),n=2;a.length-n;n+=2)i=parseInt(a.substr(n,2),16)^r,e+=String.fromCharCode(i);e=document.createTextNode(e),c.parentNode.replaceChild(e,c)}}}catch(u){}}();/* ]]&gt; */&lt;/script&gt;\nFormat settings, CABAC                   : No\nFormat settings, ReFrames                : 1 frame\nCodec ID                                 : avc1\nCodec ID/Info                            : Advanced Video Coding\nDuration                                 : 45mn 1s\nBit rate                                 : 453 Kbps\nMaximum bit rate                         : 1 576 Kbps\nWidth                                    : 472 pixels\nHeight                                   : 360 pixels\nDisplay aspect ratio                     : 4:3\nFrame rate mode                          : Constant\nFrame rate                               : 25.000 fps\nColor space                              : YUV\nChroma subsampling                       : 4:2:0\nBit depth                                : 8 bits\nScan type                                : Progressive\nBits/(Pixel*Frame)                       : 0.107\nStream size                              : 146 MiB (82%)\n\nAudio\n-----------------------------------------------------------------\nID                                       : 2\nFormat                                   : AAC\nFormat/Info                              : Advanced Audio Codec\nFormat profile                           : LC\nCodec ID                                 : 40\nDuration                                 : 45mn 1s\nBit rate mode                            : Variable\nBit rate                                 : 96.0 Kbps\nMaximum bit rate                         : 103 Kbps\nChannel(s)                               : 2 channels\nChannel positions                        : Front: L R\nSampling rate                            : 44.1 KHz\nCompression mode                         : Lossy\nStream size                              : 30.9 MiB (17%)\n\nScreens\n----------------------------------------------------------------- &lt;a href=&quot;\nhttp://share.pho.to/2SyV4/original&quot; rel=&quot;nofollow&quot; target=&quot;_NEW&quot;&gt;\nhttp://share.pho.to/2SyV4/original&lt;/a&gt; &lt;a href=&quot;\nhttp://share.pho.to/2SyV5/original&quot; rel=&quot;nofollow&quot; target=&quot;_NEW&quot;&gt;\nhttp://share.pho.to/2SyV5/original&lt;/a&gt; &lt;a href=&quot;\nhttp://share.pho.to/2SyVB/original&quot; rel=&quot;nofollow&quot; target=&quot;_NEW&quot;&gt;\nhttp://share.pho.to/2SyVB/original&lt;/a&gt; &lt;a href=&quot;\nhttp://share.pho.to/2SyVC/original&quot; rel=&quot;nofollow&quot; target=&quot;_NEW&quot;&gt;\nhttp://share.pho.to/2SyVC/original&lt;/a&gt;\n\nEnjoy ;)","torrent":{"xt":"urn:btih:9c378f8888dd987e788ccb0bafe7c993455bbaf0","amp;dn":"National.Geographic.The.Last.Killer.Tigers.WEBRip.P2P4FREE","amp;tr":["udp%3A%2F%2Ftracker.openbittorrent.com%3A80","udp%3A%2F%2Fopen.demonii.com%3A1337","udp%3A%2F%2Ftracker.coppersurfer.tk%3A6969","udp%3A%2F%2Fexodus.desync.com%3A6969"],"infoHash":"9c378f8888dd987e788ccb0bafe7c993455bbaf0","infoHashBuffer":{"type":"Buffer","data":[156,55,143,136,136,221,152,126,120,140,203,11,175,231,201,147,69,91,186,240]},"announce":[],"urlList":[]}}